<?xml version="1.0" standalone="no"?><svg xmlns="http://www.w3.org/2000/svg" viewBox="0 0 1440 320"><path fill="#0099ff" fill-opacity="1" d="M0,224L6.2,192C12.3,160,25,96,37,64C49.2,32,62,32,74,48C86.2,64,98,96,111,90.7C123.1,85,135,43,148,69.3C160,96,172,192,185,213.3C196.9,235,209,181,222,181.3C233.8,181,246,235,258,240C270.8,245,283,203,295,165.3C307.7,128,320,96,332,80C344.6,64,357,64,369,106.7C381.5,149,394,235,406,250.7C418.5,267,431,213,443,197.3C455.4,181,468,203,480,202.7C492.3,203,505,181,517,149.3C529.2,117,542,75,554,74.7C566.2,75,578,117,591,154.7C603.1,192,615,224,628,224C640,224,652,192,665,192C676.9,192,689,224,702,229.3C713.8,235,726,213,738,213.3C750.8,213,763,235,775,245.3C787.7,256,800,256,812,218.7C824.6,181,837,107,849,106.7C861.5,107,874,181,886,181.3C898.5,181,911,107,923,112C935.4,117,948,203,960,213.3C972.3,224,985,160,997,144C1009.2,128,1022,160,1034,160C1046.2,160,1058,128,1071,122.7C1083.1,117,1095,139,1108,165.3C1120,192,1132,224,1145,224C1156.9,224,1169,192,1182,186.7C1193.8,181,1206,203,1218,186.7C1230.8,171,1243,117,1255,101.3C1267.7,85,1280,107,1292,112C1304.6,117,1317,107,1329,138.7C1341.5,171,1354,245,1366,266.7C1378.5,288,1391,256,1403,229.3C1415.4,203,1428,181,1434,170.7L1440,160L1440,320L1433.8,320C1427.7,320,1415,320,1403,320C1390.8,320,1378,320,1366,320C1353.8,320,1342,320,1329,320C1316.9,320,1305,320,1292,320C1280,320,1268,320,1255,320C1243.1,320,1231,320,1218,320C1206.2,320,1194,320,1182,320C1169.2,320,1157,320,1145,320C1132.3,320,1120,320,1108,320C1095.4,320,1083,320,1071,320C1058.5,320,1046,320,1034,320C1021.5,320,1009,320,997,320C984.6,320,972,320,960,320C947.7,320,935,320,923,320C910.8,320,898,320,886,320C873.8,320,862,320,849,320C836.9,320,825,320,812,320C800,320,788,320,775,320C763.1,320,751,320,738,320C726.2,320,714,320,702,320C689.2,320,677,320,665,320C652.3,320,640,320,628,320C615.4,320,603,320,591,320C578.5,320,566,320,554,320C541.5,320,529,320,517,320C504.6,320,492,320,480,320C467.7,320,455,320,443,320C430.8,320,418,320,406,320C393.8,320,382,320,369,320C356.9,320,345,320,332,320C320,320,308,320,295,320C283.1,320,271,320,258,320C246.2,320,234,320,222,320C209.2,320,197,320,185,320C172.3,320,160,320,148,320C135.4,320,123,320,111,320C98.5,320,86,320,74,320C61.5,320,49,320,37,320C24.6,320,12,320,6,320L0,320Z"></path></svg>